<svg version="1.2" xmlns="http://www.w3.org/2000/svg" viewBox="0 0 29 29" width="29" height="29"><defs><filter x="-50%" y="-50%" width="200%" height="200%" id="f1" ><feDropShadow dx="-6.123233995736766e-17" dy="1" stdDeviation="0.4166666666666667" flood-color="#000000" flood-opacity=".1"/></filter></defs><style>.a{filter:url(#f1);fill:#fff}</style><path class="a" d="m14.8 26.7c-7.2 0-13.1-5.9-13.1-13.2 0-7.3 5.9-13.2 13.1-13.2 7.3 0 13.2 5.9 13.2 13.2 0 7.3-5.9 13.2-13.2 13.2zm11.2-11.4c-0.4-0.1-3.5-1-7.1-0.5 1.5 4.1 2.1 7.4 2.2 8.1 2.6-1.7 4.4-4.5 4.9-7.6zm-6.8 8.6c-0.1-1-0.8-4.4-2.4-8.5q0 0 0 0c-6.4 2.2-8.7 6.6-8.9 7 1.9 1.5 4.3 2.4 6.9 2.4 1.6 0 3.1-0.3 4.4-0.9zm-12.7-2.8c0.2-0.5 3.3-5.6 9.1-7.5q0.3 0 0.5-0.1-0.4-1-0.9-1.9c-5.7 1.7-11.1 1.6-11.6 1.6q0 0.2 0 0.3c0 2.9 1.1 5.6 2.9 7.6zm-2.7-9.9c0.5 0 5.2 0 10.4-1.4-1.8-3.3-3.8-6.1-4.1-6.5-3.2 1.5-5.5 4.4-6.3 7.9zm8.4-8.6c0.3 0.4 2.4 3.2 4.2 6.6 4-1.5 5.7-3.8 5.9-4.1-2-1.8-4.6-2.8-7.5-2.8q-1.3 0-2.6 0.3zm11.4 3.8c-0.3 0.3-2.2 2.7-6.3 4.4q0.4 0.9 0.7 1.7 0.1 0.3 0.3 0.6c3.7-0.5 7.4 0.2 7.8 0.3 0-2.6-1-5.1-2.5-7z"/></svg>