<svg version="1.2" xmlns="http://www.w3.org/2000/svg" viewBox="0 0 132 25" width="132" height="25"><style>.a{fill:#fff}</style><path class="a" d="m52.4 0.2h2.6v21.1h4.4v2.5h-7zm11.7 0v23.6h-2.7v-23.6zm10.4 17.1v-17.1h2.5v23.6h-3.3l-4.2-18.5v18.5h-2.5v-23.6h3.6zm5-17.1h7.3v2.5h-4.6v7.8h4.5v2.5h-4.5v8.3h4.7v2.5h-7.4zm16.6 14.5h2.6v4.9q0 4.4-4.3 4.4h-0.9q-4.3 0-4.3-4.4v-15.2q0-4.4 4.3-4.4h0.9q4.2 0 4.2 4.3v4.3h-2.6v-4.4q0-1.7-1.7-1.7h-0.7q-1.8 0-1.8 1.7v15.5q0 1.8 1.8 1.8h0.7q1.8 0 1.8-1.8zm11.2-14.5l3.6 23.6h-2.6l-0.6-3.9h-4.3l-0.5 3.9h-2.6l3.6-23.6zm0.1 17.2h-3.6l1.8-13zm12.5-5.6q1.2 0.9 1.7 1.9 0.5 0.9 0.5 2.5v3.4q0 4.4-4.3 4.4h-0.8q-4.2 0-4.2-4.3v-5h2.6v5.1q0 1.7 1.7 1.7h0.6q1.7 0 1.7-1.7v-3.6q0-0.8-0.2-1.3-0.3-0.5-0.9-0.9l-3.3-2.4q-1.3-0.9-1.8-1.9-0.4-1-0.4-2.5v-2.8q0-4.4 4.3-4.4h0.7q4.2 0 4.2 4.3v4.2h-2.6v-4.3q0-1.8-1.7-1.8h-0.5q-1.8 0-1.8 1.8v3q0 0.8 0.3 1.3 0.3 0.4 0.9 0.9zm4.8-11.6h7.4v2.5h-4.7v7.8h4.5v2.5h-4.5v8.3h4.7v2.5h-7.4z"/><path class="a" d="m0 20.1h46.6v3.9h-46.6z"/></svg>