<svg version="1.2" xmlns="http://www.w3.org/2000/svg" viewBox="0 0 33 24" width="33" height="24"><defs><filter x="-50%" y="-50%" width="200%" height="200%" id="f1" ><feDropShadow dx="-6.123233995736766e-17" dy="1" stdDeviation="0.4166666666666667" flood-color="#000000" flood-opacity=".1"/></filter></defs><style>.a{filter:url(#f1);fill:#fff}</style><path class="a" d="m28.8 11.4c-2.6 10.3-19.7 14.7-27.6 4 3 2.9 8.3 3.1 11.6-0.3-2 0.3-3.4-1.7-1-2.7-2.1 0.2-3.3-0.9-3.8-1.9 0.5-0.5 1-0.8 2.1-0.8-2.4-0.6-3.2-1.7-3.5-3.2 0.7-0.1 1.5-0.2 1.9-0.2-2-1.1-2.8-2.7-2.7-3.9 3.7 1.4 6.1 2.5 8.1 3.5 0.7 0.4 1.5 1.1 2.4 1.9 1.1-3 2.5-6 4.9-7.6-0.1 0.4-0.3 0.7-0.5 1 0.7-0.6 1.5-1.1 2.4-1.2-0.1 0.7-1 1.1-1.6 1.3 0.4-0.2 2.8-1.2 3-0.6 0.3 0.7-1.6 1-1.9 1.1q-0.4 0.1-0.7 0.3c2.9-0.3 5.8 2.1 6.6 5.2q0.1 0.3 0.2 0.7c1 0.4 3 0 3.7-0.4-0.5 1.1-1.7 1.9-3.5 2 0.9 0.4 2.5 0.6 3.6 0.4-0.7 0.7-1.8 1.4-3.7 1.4z"/></svg>