<svg version="1.2" xmlns="http://www.w3.org/2000/svg" viewBox="0 0 22 22" width="22" height="22"><defs><filter x="-50%" y="-50%" width="200%" height="200%" id="f1" ><feDropShadow dx="-6.123233995736766e-17" dy="1" stdDeviation="0.4166666666666667" flood-color="#000000" flood-opacity=".1"/></filter></defs><style>.a{filter:url(#f1);fill:#fff}</style><path class="a" d="m1.2 6.6c7.2 0 13 5.8 13 13h-3.8c0-2.5-1-4.8-2.7-6.5-1.7-1.8-4-2.7-6.5-2.7zm0-3c8.8 0 15.9 7.2 15.9 16h3.7c0-10.9-8.8-19.7-19.6-19.7zm5.2 13.3c0 1.4-1.1 2.6-2.6 2.6-1.4 0-2.6-1.2-2.6-2.6 0-1.5 1.2-2.7 2.6-2.7 1.5 0 2.6 1.2 2.6 2.7z"/></svg>